@startuml PlayerLogic
state "PlayerLogic State" as Yolk_Logic_Player_PlayerLogic_State {
  state "Alive" as Yolk_Logic_Player_PlayerLogic_State_Alive {
    state "Enabled" as Yolk_Logic_Player_PlayerLogic_State_Alive_Enabled {
      state "Grounded" as Yolk_Logic_Player_PlayerLogic_State_Alive_Enabled_Grounded {
        state "Walking" as Yolk_Logic_Player_PlayerLogic_State_Alive_Enabled_Grounded_Walking
        state "Idle" as Yolk_Logic_Player_PlayerLogic_State_Alive_Enabled_Grounded_Idle
      }
      state "Airborne" as Yolk_Logic_Player_PlayerLogic_State_Alive_Enabled_Airborne {
        state "Falling" as Yolk_Logic_Player_PlayerLogic_State_Alive_Enabled_Airborne_Falling
        state "Jumping" as Yolk_Logic_Player_PlayerLogic_State_Alive_Enabled_Airborne_Jumping
      }
    }
    state "OnWall" as Yolk_Logic_Player_PlayerLogic_State_Alive_Enabled_OnWall
    state "Disabled" as Yolk_Logic_Player_PlayerLogic_State_Alive_Disabled {
      state "Hurt" as Yolk_Logic_Player_PlayerLogic_State_Alive_Disabled_Hurt
    }
  }
  state "Dead" as Yolk_Logic_Player_PlayerLogic_State_Dead
}

Yolk_Logic_Player_PlayerLogic_State --> Yolk_Logic_Player_PlayerLogic_State : RegisterCheckpoint
Yolk_Logic_Player_PlayerLogic_State_Alive_Disabled_Hurt --> Yolk_Logic_Player_PlayerLogic_State_Alive_Disabled_Hurt : AnimationFinished
Yolk_Logic_Player_PlayerLogic_State_Alive_Disabled_Hurt --> Yolk_Logic_Player_PlayerLogic_State_Alive_Disabled_Hurt : OnGrounded
Yolk_Logic_Player_PlayerLogic_State_Alive_Disabled_Hurt --> Yolk_Logic_Player_PlayerLogic_State_Alive_Disabled_Hurt : PhysicsTick
Yolk_Logic_Player_PlayerLogic_State_Alive_Disabled_Hurt --> Yolk_Logic_Player_PlayerLogic_State_Alive_Enabled_Grounded_Idle : BlackoutFinished
Yolk_Logic_Player_PlayerLogic_State_Alive_Disabled_Hurt --> Yolk_Logic_Player_PlayerLogic_State_Dead : BlackoutFinished
Yolk_Logic_Player_PlayerLogic_State_Alive_Enabled --> Yolk_Logic_Player_PlayerLogic_State_Alive_Disabled_Hurt : TakeDamage
Yolk_Logic_Player_PlayerLogic_State_Alive_Enabled --> Yolk_Logic_Player_PlayerLogic_State_Alive_Enabled : Move
Yolk_Logic_Player_PlayerLogic_State_Alive_Enabled_Airborne --> Yolk_Logic_Player_PlayerLogic_State_Alive_Enabled_Airborne : PhysicsTick
Yolk_Logic_Player_PlayerLogic_State_Alive_Enabled_Airborne --> Yolk_Logic_Player_PlayerLogic_State_Alive_Enabled_Airborne_Falling : HitCeiling
Yolk_Logic_Player_PlayerLogic_State_Alive_Enabled_Airborne_Falling --> Yolk_Logic_Player_PlayerLogic_State_Alive_Enabled_Airborne_Falling : Jump
Yolk_Logic_Player_PlayerLogic_State_Alive_Enabled_Airborne_Falling --> Yolk_Logic_Player_PlayerLogic_State_Alive_Enabled_Airborne_Falling : OnGrounded
Yolk_Logic_Player_PlayerLogic_State_Alive_Enabled_Airborne_Falling --> Yolk_Logic_Player_PlayerLogic_State_Alive_Enabled_Airborne_Jumping : Jump
Yolk_Logic_Player_PlayerLogic_State_Alive_Enabled_Airborne_Falling --> Yolk_Logic_Player_PlayerLogic_State_Alive_Enabled_Grounded_Idle : OnGrounded
Yolk_Logic_Player_PlayerLogic_State_Alive_Enabled_Airborne_Jumping --> Yolk_Logic_Player_PlayerLogic_State_Alive_Enabled_Airborne_Falling : PhysicsTick
Yolk_Logic_Player_PlayerLogic_State_Alive_Enabled_Airborne_Jumping --> Yolk_Logic_Player_PlayerLogic_State_Alive_Enabled_Airborne_Falling : StopJump
Yolk_Logic_Player_PlayerLogic_State_Alive_Enabled_Airborne_Jumping --> Yolk_Logic_Player_PlayerLogic_State_Alive_Enabled_Airborne_Jumping : PhysicsTick
Yolk_Logic_Player_PlayerLogic_State_Alive_Enabled_Grounded --> Yolk_Logic_Player_PlayerLogic_State_Alive_Enabled_Airborne_Falling : OnGrounded
Yolk_Logic_Player_PlayerLogic_State_Alive_Enabled_Grounded --> Yolk_Logic_Player_PlayerLogic_State_Alive_Enabled_Airborne_Jumping : Jump
Yolk_Logic_Player_PlayerLogic_State_Alive_Enabled_Grounded --> Yolk_Logic_Player_PlayerLogic_State_Alive_Enabled_Grounded : OnGrounded
Yolk_Logic_Player_PlayerLogic_State_Alive_Enabled_Grounded --> Yolk_Logic_Player_PlayerLogic_State_Alive_Enabled_Grounded_Idle : PhysicsTick
Yolk_Logic_Player_PlayerLogic_State_Alive_Enabled_Grounded --> Yolk_Logic_Player_PlayerLogic_State_Alive_Enabled_Grounded_Walking : PhysicsTick
Yolk_Logic_Player_PlayerLogic_State_Alive_Enabled_Grounded_Walking --> Yolk_Logic_Player_PlayerLogic_State_Alive_Enabled_Grounded_Idle : PhysicsTick
Yolk_Logic_Player_PlayerLogic_State_Alive_Enabled_Grounded_Walking --> Yolk_Logic_Player_PlayerLogic_State_Alive_Enabled_Grounded_Walking : PhysicsTick

Yolk_Logic_Player_PlayerLogic_State_Alive_Disabled : OnEnter → SetEnabled
Yolk_Logic_Player_PlayerLogic_State_Alive_Disabled_Hurt : OnEnter → Animate
Yolk_Logic_Player_PlayerLogic_State_Alive_Disabled_Hurt : OnExit → GrantInvincibility
Yolk_Logic_Player_PlayerLogic_State_Alive_Disabled_Hurt : OnPhysicsTick → MoveAndSlide
Yolk_Logic_Player_PlayerLogic_State_Alive_Enabled : OnEnter → SetEnabled
Yolk_Logic_Player_PlayerLogic_State_Alive_Enabled_Airborne : OnPhysicsTick → FaceLeft, FaceRight, MoveAndSlide
Yolk_Logic_Player_PlayerLogic_State_Alive_Enabled_Airborne_Falling : OnEnter → Animate
Yolk_Logic_Player_PlayerLogic_State_Alive_Enabled_Airborne_Jumping : OnEnter → Animate, OnJump
Yolk_Logic_Player_PlayerLogic_State_Alive_Enabled_Airborne_Jumping : OnPhysicsTick → MoveAndSlide
Yolk_Logic_Player_PlayerLogic_State_Alive_Enabled_Grounded : OnPhysicsTick → MoveAndSlide
Yolk_Logic_Player_PlayerLogic_State_Alive_Enabled_Grounded_Idle : OnEnter → Animate
Yolk_Logic_Player_PlayerLogic_State_Alive_Enabled_Grounded_Walking : OnEnter → Animate
Yolk_Logic_Player_PlayerLogic_State_Alive_Enabled_Grounded_Walking : OnPhysicsTick → FaceLeft, FaceRight, MoveAndSlide

[*] --> Yolk_Logic_Player_PlayerLogic_State_Alive_Enabled_Grounded_Idle
@enduml